<svg data-v-0dd9719b="" version="1.0" xmlns="http://www.w3.org/2000/svg" xmlns:xlink="http://www.w3.org/1999/xlink" width="100%" height="100%" viewBox="0 0 340.000000 250.000000" preserveAspectRatio="xMidYMid meet" color-interpolation-filters="sRGB" style="margin: auto;"> <rect data-v-0dd9719b="" x="0" y="0" width="100%" height="100%" fill="#fff" fill-opacity="1" class="background"></rect> <rect data-v-0dd9719b="" x="0" y="0" width="100%" height="100%" fill="url(#watermark)" fill-opacity="1" class="watermarklayer"></rect> <g data-v-0dd9719b="" fill="#333" class="icon-text-wrapper icon-svg-group iconsvg" transform="translate(50.454994201660156,97.48374938964844)"><g class="iconsvg-imagesvg" transform="translate(0,1.2920150756835938)"><g><rect fill="#333" fill-opacity="0" stroke-width="2" x="0" y="0" width="60" height="52.44846937883529" class="image-rect"></rect> <svg x="0" y="0" width="60" height="52.44846937883529" filtersec="colorsb9349998250" class="image-svg-svg primary" style="overflow: visible;"><svg xmlns="http://www.w3.org/2000/svg" viewBox="-0.0032248497009277344 0.0007975101470947266 183.73321533203125 160.6080780029297"><path d="M119.07 70.77v69.46c0 1.12-.35 1.52-1.42 1.75-4 .88-8 1.63-12 2.34-1.14.2-1.44 0-1.44-1.23q.06-34.73 0-69.46a2.07 2.07 0 0 0-1.11-2q-13.1-8-26.15-16.06l-.42-.26c-.63-.43-1-.44-1 .51v88.59c0 1.14-.34 1.39-1.4 1.24-2.09-.28-4.19-.49-6.29-.66-1-.08-1.35-.45-1.35-1.51q.06-27 0-54V26.84a1.67 1.67 0 0 1 1.09-1.76Q92.61 12.82 117.44.52c1.64-.81 1.63-.81 1.63 1z" fill="#ec1d26"></path><path d="M124.19 85.27V31.9c0-1.57 0-1.55 1.37-.85 9 4.63 18 9.28 27.1 13.84a2.46 2.46 0 0 1 1.57 2.6q-.07 39.6 0 79.2a2 2 0 0 1-1.22 2.07 145.84 145.84 0 0 1-27.48 11.14c-1.32.39-1.33.37-1.33-1zM61.45 99.57v42.88c0 1.13-.24 1.37-1.36 1.13-9.92-2.14-19.33-5.51-27.75-11.34a2.65 2.65 0 0 1-1.28-2.49q.06-28.87 0-57.75a1.93 1.93 0 0 1 1.25-2q14-7 28-14.16c1-.53 1.09-.14 1.09.75q.04 21.48.05 42.98z" fill="#1265af"></path><path d="M16.6 81.46c-4.86 9.2-8.2 18.38-7.9 28.63A34.07 34.07 0 0 0 19 133.83c6.35 6.44 14.12 10.56 22.56 13.52 12.86 4.5 26.17 5.9 39.7 5.47a147.47 147.47 0 0 0 59.42-14.44c11.85-5.67 22.65-12.88 31.63-22.58a58.12 58.12 0 0 0 10.65-15.62 8.93 8.93 0 0 1 .77-1.34 44.64 44.64 0 0 1-5.93 13.36c-5.93 9.28-13.82 16.64-22.77 22.93-13.19 9.29-27.75 15.62-43.26 19.88a150.78 150.78 0 0 1-44.92 5.54C53.9 160.14 41.3 158 29.32 153c-8.45-3.57-16.07-8.4-21.77-15.75-8.2-10.6-9.49-22.29-5-34.74 2.74-7.51 7.37-13.9 12.7-19.77.34-.37.75-.68 1.35-1.28z" fill="#1265af"></path></svg></svg> <!----></g></g> <g transform="translate(67,0)"><g data-gra="path-name" fill-rule="" class="tp-name iconsvg-namesvg" transform="translate(0,0)"><g transform="scale(1)"><g><path d="M20.04-35.33L20.04-35.33Q24.26-35.33 25.66-34.8L25.66-34.8Q25.66-34.45 25.31-34.1L25.31-34.1Q24.43-33.05 24.43-31.64L24.43-31.64 24.43-2.64 35.16-2.64 35.16-22.68Q35.16-24.26 34.98-25.66L34.98-25.66Q39.38-25.66 39.73-25.14L39.73-25.14Q39.73-24.96 39.55-24.43L39.55-24.43Q38.85-23.55 38.85-22.5L38.85-22.5 38.85-2.99Q38.85 1.23 39.2 2.99L39.2 2.99 34.98 2.99Q35.16 1.58 35.16 0.53L35.16 0.53 11.78 0.53Q9.32 0.53 6.86 0.7L6.86 0.7Q6.33 0.7 6.15 0.7L6.15 0.7Q6.33-2.11 6.33-5.45L6.33-5.45 6.33-21.45Q6.33-23.73 6.15-25.49L6.15-25.49Q6.15-25.66 6.15-25.84L6.15-25.84Q10.2-25.66 11.07-25.14L11.07-25.14Q11.07-24.96 10.72-24.61L10.72-24.61Q10.02-23.91 10.02-22.68L10.02-22.68 10.02-2.64 20.39-2.64 20.39-30.76Q20.39-33.57 20.04-35.33ZM87.71-34.1L87.71-34.1 87.71-30.06Q86.31-30.41 81.21-30.41L81.21-30.41 73.65-30.41 73.65-23.55 78.57-23.55Q82.97-23.55 84.2-23.91L84.2-23.91Q84.2-23.91 84.2-23.55L84.2-23.55Q83.85-21.45 83.85-18.81L83.85-18.81 83.85-2.46Q83.85-0.88 84.2 3.34L84.2 3.34 79.98 3.34Q79.98 3.87 80.16 1.58L80.16 1.58Q80.16 0.53 80.16-0.35L80.16-0.35 55.2-0.35Q55.2 1.58 55.37 3.34L55.37 3.34 51.5 3.34Q51.68 2.29 51.68-1.93L51.68-1.93 51.68-19.16Q51.68-21.27 51.5-23.38L51.5-23.38Q51.5-23.73 51.5-23.91L51.5-23.91Q53.44-23.55 56.07-23.55L56.07-23.55 61.52-23.55 61.52-30.41 54.32-30.41Q49.75-30.41 47.81-30.06L47.81-30.06 47.81-34.1Q50.45-33.57 54.14-33.57L54.14-33.57 81.04-33.57Q85.43-33.57 87.71-34.1ZM70.14-23.55L70.14-30.41 65.04-30.41 65.04-23.55 70.14-23.55ZM80.33-3.52L80.33-20.39 73.65-20.39 73.65-13.36Q73.48-10.72 79.1-13.01L79.1-13.01Q78.93-12.13 78.93-10.9L78.93-10.9Q78.93-9.67 78.93-8.79L78.93-8.79Q68.73-7.03 70.14-12.48L70.14-12.48 70.14-20.39 64.86-20.39Q64.51-12.13 58.89-7.03L58.89-7.03Q57.3-8.61 55.55-9.67L55.55-9.67Q61.7-12.66 61.52-20.39L61.52-20.39 55.2-20.39 55.2-3.52 80.33-3.52ZM109.86-36.04L109.86-36.04Q115.14-36.04 115.14-35.33L115.14-35.33Q115.14-34.98 114.79-34.45L114.79-34.45Q113.91-32.87 113.91-30.23L113.91-30.23 113.91-24.08 122.17-24.08Q128.5-24.08 130.61-24.43L130.61-24.43 130.61-20.04Q128.14-20.39 122.17-20.39L122.17-20.39 114.61-20.39Q117.77-4.22 132.71-0.88L132.71-0.88Q130.25 0.18 128.14 3.34L128.14 3.34Q114.79-3.87 112.68-15.82L112.68-15.82Q111.09-2.46 95.8 4.04L95.8 4.04Q94.39 2.11 91.41 0.35L91.41 0.35Q108.11-3.69 110.04-20.39L110.04-20.39 100.55-20.39Q95.45-20.39 93.52-20.04L93.52-20.04 93.52-24.43Q95.63-24.08 100.72-24.08L100.72-24.08 110.21-24.08 110.21-31.64Q110.21-33.93 109.86-35.68L109.86-35.68Q109.86-35.86 109.86-36.04ZM140.8-30.23L140.8-33.93Q144.14-33.57 148.01-33.57L148.01-33.57 163.48-33.57Q167.7-33.57 170.51-33.93L170.51-33.93Q170.16-32.17 169.45-29.88L169.45-29.88 168.57-26.19 170.86-26.19Q173.5-26.19 175.43-26.37L175.43-26.37Q174.55-23.03 173.85-17.23L173.85-17.23Q173.32-13.54 172.97-13.01L172.97-13.01Q171.56-11.43 167.17-10.9L167.17-10.9Q167.17-12.48 165.76-14.94L165.76-14.94Q168.75-14.41 169.63-15.29L169.63-15.29Q170.33-16.7 171.04-23.2L171.04-23.2Q167.17-23.38 164.36-23.03L164.36-23.03Q164.71-24.08 165.59-27.25L165.59-27.25 166.29-30.59 152.4-30.59Q152.23-30.23 152.05-29.36L152.05-29.36Q151.52-26.89 151.17-26.02L151.17-26.02 157.68-26.02Q160.49-26.02 163.65-26.19L163.65-26.19Q161.37-20.74 159.43-17.75L159.43-17.75Q163.65-15.64 165.23-14.77L165.23-14.77Q164-13.54 162.77-11.95L162.77-11.95Q162.95-12.13 162.6-11.78L162.6-11.78Q160.49-13.54 157.5-15.47L157.5-15.47Q154.34-12.83 150.29-10.9L150.29-10.9Q149.77-11.78 148.54-12.66L148.54-12.66Q147.66-13.18 147.13-13.54L147.13-13.54Q152.4-14.77 154.69-16.88L154.69-16.88Q152.58-18.28 149.94-18.81L149.94-18.81Q150.47-19.51 151.52-21.27L151.52-21.27Q154.69-20.04 156.62-18.98L156.62-18.98Q157.68-20.39 159.08-23.38L159.08-23.38 150.64-23.38Q147.66-16.17 140.98-10.72L140.98-10.72Q139.75-12.3 136.93-13.36L136.93-13.36Q147.83-17.58 148.89-30.59L148.89-30.59 147.48-30.59Q144.14-30.59 140.8-30.23L140.8-30.23ZM143.09-10.37L143.09-10.37Q146.6-10.02 151.7-10.02L151.7-10.02 163.83-10.02Q169.98-10.02 172.44-10.55L172.44-10.55Q172.27-8.79 172.27-4.92L172.27-4.92 172.27-0.53Q175.78-0.53 178.24-0.88L178.24-0.88 178.24 2.81Q176.13 2.46 172.62 2.46L172.62 2.46 144.14 2.46Q139.39 2.46 136.93 2.81L136.93 2.81 136.93-0.88Q139.57-0.53 143.44-0.53L143.44-0.53 143.44-4.57Q143.44-8.61 143.09-10.37ZM152.05-0.53L152.05-7.21 146.95-7.21 146.95-0.53 152.05-0.53ZM160.14-0.53L160.14-7.21 155.21-7.21 155.21-0.53 160.14-0.53ZM168.57-7.21L163.48-7.21 163.48-0.53 168.57-0.53 168.57-7.21Z" transform="translate(-6.150000095367432, 36.040000915527344)"></path></g> <!----> <!----> <!----> <!----> <!----> <!----> <!----></g></g> <g data-gra="path-slogan" fill-rule="" class="tp-slogan iconsvg-slogansvg" fill="#333" transform="translate(39.93918228149414,46.08000183105469)"><!----> <!----> <g transform="scale(1, 1)"><g transform="scale(1)"><path d="M7.17-6.09L7.17-6.09L6.09-6.09Q6-7.73 3.94-7.83L3.94-7.83Q2.02-7.78 2.02-6.33L2.02-6.33Q2.02-5.39 3.05-5.25L3.05-5.25L5.48-4.69Q7.41-4.22 7.41-2.34L7.41-2.34Q7.36 0.05 4.03 0.14L4.03 0.14Q2.20 0.14 1.45-0.61L1.45-0.61Q0.52-1.31 0.56-2.77L0.56-2.77L1.69-2.77Q1.73-0.80 4.03-0.75L4.03-0.75Q6.28-0.80 6.33-2.20L6.33-2.20Q6.52-3.38 4.45-3.75L4.45-3.75L2.67-4.13Q0.84-4.64 0.84-6.19L0.84-6.19Q0.98-8.72 3.84-8.81L3.84-8.81Q7.08-8.81 7.17-6.09ZM10.03-5.06L14.53-5.06L14.53-8.58L15.70-8.58L15.70 0L14.53 0L14.53-3.98L10.03-3.98L10.03 0L8.86 0L8.86-8.58L10.03-8.58L10.03-5.06ZM23.16 0L22.31-2.48L18.84-2.48L17.95 0L16.78 0L20.02-8.58L21.33-8.58L24.42 0L23.16 0ZM20.58-7.31L19.22-3.52L21.89-3.52L20.63-7.31L20.58-7.31ZM26.86-8.58L31.17-1.64L31.17-8.58L32.30-8.58L32.30 0L30.98 0L26.63-6.94L26.58-6.94L26.58 0L25.45 0L25.45-8.58L26.86-8.58ZM40.83-8.58L37.92-4.41L40.97 0L39.52 0L37.17-3.52L34.83 0L33.42 0L36.52-4.41L33.61-8.58L35.06-8.58L37.22-5.30L39.42-8.58L40.83-8.58ZM42.23-8.58L43.41-8.58L43.41 0L42.23 0L42.23-8.58ZM52.22 0L48.75 0L48.75-8.58L52.27-8.58Q55.73-8.39 55.88-4.41L55.88-4.41Q55.69-0.09 52.22 0L52.22 0ZM52.08-7.64L49.92-7.64L49.92-0.98L52.17-0.98Q54.61-1.13 54.70-4.31L54.70-4.31Q54.66-7.55 52.08-7.64L52.08-7.64ZM63 0L62.16-2.48L58.69-2.48L57.80 0L56.63 0L59.86-8.58L61.17-8.58L64.27 0L63 0ZM60.42-7.31L59.06-3.52L61.73-3.52L60.47-7.31L60.42-7.31ZM72.23-8.58L69-3.47L69 0L67.83 0L67.83-3.47L64.59-8.58L65.95-8.58L68.39-4.45L70.88-8.58L72.23-8.58ZM73.45-8.58L74.63-8.58L74.63 0L73.45 0L73.45-8.58ZM78-8.58L82.31-1.64L82.31-8.58L83.44-8.58L83.44 0L82.13 0L77.77-6.94L77.72-6.94L77.72 0L76.59 0L76.59-8.58L78-8.58ZM91.64-3.61L89.02-3.61L89.02-4.59L92.77-4.59L92.77 0L92.02 0L91.73-1.08Q90.75 0.09 88.92 0.14L88.92 0.14Q87.19 0.14 86.25-0.75L86.25-0.75Q84.84-2.06 84.89-4.36L84.89-4.36Q85.22-8.63 88.97-8.81L88.97-8.81Q92.16-8.63 92.63-6L92.63-6L91.50-6Q91.03-7.78 88.92-7.83L88.92-7.83Q86.25-7.64 86.11-4.31L86.11-4.31Q86.11-0.75 88.97-0.75L88.97-0.75Q90-0.75 90.75-1.31L90.75-1.31Q91.69-2.06 91.64-3.61L91.64-3.61Z" transform="translate(-0.5602678571428572, 8.8125)"></path></g></g></g></g></g><defs v-gra="od"></defs></svg>